<svg height="512pt" viewBox="0 0 512 511" width="512pt" xmlns="http://www.w3.org/2000/svg"><path d="m274.015625 219.710938h215.148437v15.222656h-215.148437zm0 0" fill="#f69b65"/><path d="m22.835938 180.640625c-4.199219 0-7.613282-3.414063-7.613282-7.613281 0-4.199219 3.414063-7.613282 7.613282-7.613282h15.222656c4.203125 0 7.609375-3.40625 7.609375-7.609374 0-4.203126-3.40625-7.613282-7.609375-7.613282h-15.222656c-12.59375 0-22.835938 10.246094-22.835938 22.835938s10.242188 22.835937 22.835938 22.835937h121.78125v-15.222656zm0 0" fill="#f9d4a0"/><path d="m182.675781 299.546875h-15.222656v139.375l15.222656 20.296875zm0 0" fill="#f38042"/><path d="m223.136719 497.664062-17.625-5.875v-52.867187h-38.058594v50.742187c0 3.277344 2.097656 6.183594 5.203125 7.21875l45.667969 15.222657c3.984375 1.332031 8.296875-.824219 9.628906-4.8125 1.328125-3.988281-.828125-8.296875-4.816406-9.628907zm0 0" fill="#f9d4a0"/><path d="m106.558594 299.546875h15.222656v139.375l-15.222656 20.296875zm0 0" fill="#f69b65"/><path d="m66.097656 497.664062 17.628906-5.875v-52.867187h38.054688v50.742187c0 3.277344-2.09375 6.183594-5.203125 7.21875l-45.667969 15.222657c-3.984375 1.332031-8.296875-.824219-9.625-4.8125s.824219-8.296875 4.8125-9.628907zm0 0" fill="#ffebcf"/><path d="m266.402344 347.585938h230.375v30.445312h-230.375zm0 0" fill="#f69b65"/><path d="m266.402344 46.167969h230.375v30.445312h-230.375zm0 0" fill="#f69b65"/><path d="m220.730469 137.507812c0-5.792968-1.621094-11.199218-4.429688-15.804687l-32.65625-53.59375-26.007812 7.285156 20.472656 116.914063 12.179687 6.089844c16.8125 0 30.445313-13.628907 30.445313-30.445313 0-5.546875-1.492187-10.742187-4.082031-15.222656 2.589844-4.480469 4.078125-9.675781 4.078125-15.222657zm0 0" fill="#762916"/><path d="m190.285156 167.953125c0-5.546875-1.488281-10.742187-4.082031-15.222656 2.59375-4.480469 4.082031-9.675781 4.082031-15.222657 0-5.792968-1.621094-11.199218-4.429687-15.804687l-28.21875-46.308594-58.6875 16.445313v45.667968c0 16.746094 13.699219 30.445313 30.445312 30.445313l48.714844 24.355469c7.394531-5.554688 12.175781-14.394532 12.175781-24.355469zm0 0" fill="#893a31"/><path d="m251.179688.5h30.445312v504.386719h-30.445312zm0 0" fill="#f9b589"/><path d="m481.554688.5h30.445312v504.386719h-30.445312zm0 0" fill="#f9b589"/><path d="m144.617188 258.371094 30.445312 119.660156 15.230469-10.152344 15.214843 10.152344v-78.484375zm0 0" fill="#da521b"/><path d="m83.726562 299.546875v78.484375c.011719 0 15.226563-10.152344 15.226563-10.152344l15.21875 10.152344 15.214844-10.152344 15.242187 10.152344 15.21875-10.152344 15.214844 10.152344v-119.660156zm0 0" fill="#f0651f"/><path d="m190.285156 188.25c0-11.210938-9.085937-20.296875-20.296875-20.296875h-30.445312v106.5625h50.742187zm0 0" fill="#f9b589"/><path d="m159.839844 188.25v86.265625h-60.890625v-86.265625c0-11.214844 9.082031-20.296875 20.296875-20.296875h20.296875c11.214843 0 20.296875 9.082031 20.296875 20.296875zm0 0" fill="#f9d4a0"/><path d="m190.285156 259.289062h-30.445312l15.222656 40.257813h30.445312c0-15.4375-5.753906-29.523437-15.222656-40.257813zm0 0" fill="#f9d4a0"/><path d="m159.839844 259.289062h-60.890625c-9.46875 10.734376-15.222657 24.820313-15.222657 40.257813h91.335938c0-15.4375-5.753906-29.523437-15.222656-40.257813zm0 0" fill="#ffebcf"/><path d="m179.382812 62.238281c.007813-.007812-34.765624-.003906-34.765624-.003906v75.273437c25.21875 0 45.667968-20.449218 45.667968-45.667968 0-11.289063-4.105468-21.632813-10.902344-29.601563zm0 0" fill="#f38042"/><path d="m158.714844 74.59375-48.863282-12.355469c-6.796874 7.96875-10.902343 18.3125-10.902343 29.601563 0 25.21875 20.449219 45.667968 45.667969 45.667968 8.402343 0 15.222656-20.449218 15.222656-45.667968 0-6.101563-.394532-11.925782-1.125-17.246094zm0 0" fill="#f69b65"/><path d="m144.617188 46.167969 14.097656 28.425781c7.558594-2.261719 14.6875-6.386719 20.667968-12.355469-8.375-9.832031-20.839843-16.070312-34.765624-16.070312zm0 0" fill="#762916"/><path d="m144.617188 46.167969c-13.921876 0-26.390626 6.238281-34.765626 16.070312 13.234376 13.234375 32.117188 17.359375 48.863282 12.355469-2.265625-16.671875-7.722656-28.425781-14.097656-28.425781zm0 0" fill="#893a31"/><path d="m38.058594 134.96875c-4.203125 0-7.613282-3.40625-7.613282-7.609375v-30.445313c0-4.207031 3.410157-7.613281 7.613282-7.613281s7.609375 3.40625 7.609375 7.613281v30.445313c0 4.203125-3.40625 7.609375-7.609375 7.609375zm0 0" fill="#a3e9d9"/><path d="m335.921875 38.558594c-4.203125 0-7.613281 3.40625-7.613281 7.609375v382.605469h15.222656v-382.605469c0-4.203125-3.40625-7.609375-7.609375-7.609375zm0 0" fill="#ffebcf"/><path d="m366.367188 38.558594c-4.203126 0-7.613282 3.40625-7.613282 7.609375v382.605469h15.222656v-382.605469c0-4.203125-3.40625-7.609375-7.609374-7.609375zm0 0" fill="#f9d4a0"/><path d="m396.8125 38.558594c-4.203125 0-7.609375 3.40625-7.609375 7.609375v382.605469h15.222656v-382.605469c0-4.203125-3.410156-7.609375-7.613281-7.609375zm0 0" fill="#ffebcf"/><path d="m427.257812 38.558594c-4.203124 0-7.609374 3.40625-7.609374 7.609375v382.605469h15.222656v-382.605469c0-4.203125-3.410156-7.609375-7.613282-7.609375zm0 0" fill="#f9d4a0"/><path d="m427.257812 408.476562c-8.40625 0-15.222656 6.816407-15.222656 15.222657l-15.222656 17.761719 15.222656 17.757812c0 8.40625 6.816406 15.222656 15.222656 15.222656s15.222657-6.816406 15.222657-15.222656v-35.519531c0-8.40625-6.816407-15.222657-15.222657-15.222657zm0 0" fill="#5cae96"/><path d="m396.8125 408.476562c-8.40625 0-15.222656 6.816407-15.222656 15.222657l-15.222656 17.761719 15.222656 17.757812c0 8.40625 6.816406 15.222656 15.222656 15.222656s15.222656-6.816406 15.222656-15.222656v-35.519531c0-8.40625-6.816406-15.222657-15.222656-15.222657zm0 0" fill="#66dbbf"/><path d="m366.367188 408.476562c-8.40625 0-15.222657 6.816407-15.222657 15.222657l-15.222656 17.761719 15.222656 17.757812c0 8.40625 6.816407 15.222656 15.222657 15.222656s15.222656-6.816406 15.222656-15.222656v-35.519531c0-8.40625-6.816406-15.222657-15.222656-15.222657zm0 0" fill="#5cae96"/><path d="m335.921875 408.476562c-8.410156 0-15.222656 6.816407-15.222656 15.222657v35.519531c0 8.40625 6.8125 15.222656 15.222656 15.222656 8.40625 0 15.222656-6.816406 15.222656-15.222656v-35.519531c0-8.40625-6.816406-15.222657-15.222656-15.222657zm0 0" fill="#66dbbf"/></svg>